<svg xmlns="http://www.w3.org/2000/svg" xmlns:xlink="http://www.w3.org/1999/xlink" width="849.521" height="833" viewBox="0 0 849.521 833"><defs><linearGradient id="a" x1="0.5" x2="0.5" y2="1" gradientUnits="objectBoundingBox"><stop offset="0" stop-color="#a065e3"/><stop offset="0.58" stop-color="#7950ca"/><stop offset="1" stop-color="#4b38ae"/></linearGradient><clipPath id="b"><rect width="308" height="647" rx="13" transform="translate(-0.588 0.769)"/></clipPath><filter id="c" x="259.331" y="748.325" width="368.932" height="116.093" filterUnits="userSpaceOnUse"><feOffset dy="-0.5" input="SourceAlpha"/><feGaussianBlur stdDeviation="1" result="d"/><feFlood flood-opacity="0.161"/><feComposite operator="in" in2="d"/><feComposite in="SourceGraphic"/></filter><linearGradient id="e" x1="0.147" y1="0.086" x2="0.901" y2="0.88" xlink:href="#a"/><linearGradient id="f" x1="-0.187" y1="0.233" x2="3.282" y2="2.017" gradientUnits="objectBoundingBox"><stop offset="0" stop-color="#da2ee6"/><stop offset="0.52" stop-color="#822ace"/><stop offset="1" stop-color="#3922b5"/></linearGradient><linearGradient id="g" x1="-0.955" y1="-0.176" x2="2.406" y2="1.62" xlink:href="#f"/><linearGradient id="h" x1="-2.737" y1="-0.149" x2="10.052" y2="2.415" xlink:href="#f"/><linearGradient id="i" x1="-5.165" y1="-0.547" x2="2.802" y2="0.926" xlink:href="#f"/><linearGradient id="j" x1="-1.091" y1="-0.505" x2="2.966" y2="2.058" xlink:href="#f"/><linearGradient id="k" x1="-1.998" y1="-0.979" x2="2.367" y2="1.497" xlink:href="#f"/><linearGradient id="l" x1="-1.08" y1="-0.383" x2="0.956" y2="0.655" xlink:href="#f"/></defs><g transform="translate(-968.479 -133)"><circle cx="322.5" cy="322.5" r="322.5" transform="translate(1090 133)" opacity="0.32" fill="url(#a)"/><g transform="translate(1259.588 318.231)" clip-path="url(#b)"><rect width="308" height="647" transform="translate(-0.588 0.769)" fill="#fff"/><g transform="translate(21.117 315.656)"><rect width="266.298" height="68.784" rx="12" fill="#4b38ae"/><text transform="translate(47.295 25.112)" fill="#fff" font-size="17" font-family="Komet-Medium, Komet" font-weight="500"><tspan x="0" y="0">TITRE</tspan></text><text transform="translate(47.295 43.112)" fill="#fff" font-size="8" font-family="SegoeUI, Segoe UI"><tspan x="0" y="0">Lorem ipsum dolor sit </tspan><tspan x="0" y="11">amet, consetetur</tspan></text><g transform="translate(181.295 9.912)"><text transform="translate(0 15.201)" fill="#fff" font-size="15" font-family="Komet-Medium, Komet" font-weight="500"><tspan x="0" y="0">DATE</tspan></text><text transform="translate(0 32.201)" fill="#fff" font-size="11" font-family="Komet-Medium, Komet" font-weight="500"><tspan x="0" y="0">00/00</tspan></text></g></g><g transform="translate(21.117 469.29)"><rect width="266.298" height="68.784" rx="12" fill="#4b38ae"/><text transform="translate(47.295 25.479)" fill="#fff" font-size="17" font-family="Komet-Medium, Komet" font-weight="500"><tspan x="0" y="0">TITRE</tspan></text><text transform="translate(47.295 43.479)" fill="#fff" font-size="8" font-family="SegoeUI, Segoe UI"><tspan x="0" y="0">Lorem ipsum dolor sit </tspan><tspan x="0" y="11">amet, consetetur</tspan></text><g transform="translate(181.295 10.278)"><text transform="translate(0 15.201)" fill="#fff" font-size="15" font-family="Komet-Medium, Komet" font-weight="500"><tspan x="0" y="0">DATE</tspan></text><text transform="translate(0 32.201)" fill="#fff" font-size="11" font-family="Komet-Medium, Komet" font-weight="500"><tspan x="0" y="0">00/00</tspan></text></g></g><g transform="translate(21.117 238.84)"><rect width="266.298" height="68.784" rx="12" fill="#4b38ae"/><text transform="translate(47.295 24.929)" fill="#fff" font-size="17" font-family="Komet-Medium, Komet" font-weight="500"><tspan x="0" y="0">TITRE</tspan></text><text transform="translate(47.295 42.929)" fill="#fff" font-size="8" font-family="SegoeUI, Segoe UI"><tspan x="0" y="0">Lorem ipsum dolor sit </tspan><tspan x="0" y="11">amet, consetetur</tspan></text><g transform="translate(181.295 11.128)"><text transform="translate(0 14.8)" fill="#fff" font-size="15" font-family="Komet-Medium, Komet" font-weight="500"><tspan x="0" y="0">DATE</tspan></text><text transform="translate(0 30.8)" fill="#fff" font-size="11" font-family="Komet-Medium, Komet" font-weight="500"><tspan x="0" y="0">00/00</tspan></text></g></g><g transform="translate(21.117 392.473)"><rect width="266.298" height="68.784" rx="12" fill="#4b38ae"/><text transform="translate(47.295 25.295)" fill="#fff" font-size="17" font-family="Komet-Medium, Komet" font-weight="500"><tspan x="0" y="0">TITRE</tspan></text><text transform="translate(47.295 43.295)" fill="#fff" font-size="8" font-family="SegoeUI, Segoe UI"><tspan x="0" y="0">Lorem ipsum dolor sit </tspan><tspan x="0" y="11">amet, consetetur</tspan></text><g transform="translate(181.295 10.096)"><text transform="translate(0 15.2)" fill="#fff" font-size="15" font-family="Komet-Medium, Komet" font-weight="500"><tspan x="0" y="0">DATE</tspan></text><text transform="translate(0 32.2)" fill="#fff" font-size="11" font-family="Komet-Medium, Komet" font-weight="500"><tspan x="0" y="0">00/00</tspan></text></g></g><g transform="translate(21.117 162.023)"><rect width="266.298" height="68.784" rx="12" fill="#4b38ae"/><text transform="translate(47.295 24.745)" fill="#fff" font-size="17" font-family="Komet-Medium, Komet" font-weight="500"><tspan x="0" y="0">TITRE</tspan></text><text transform="translate(47.295 43.745)" fill="#fff" font-size="8" font-family="SegoeUI, Segoe UI"><tspan x="0" y="0">Lorem ipsum dolor sit </tspan><tspan x="0" y="11">amet, consetetur</tspan></text><g transform="translate(181.295 9.545)"><text transform="translate(0 15.2)" fill="#fff" font-size="15" font-family="Komet-Medium, Komet" font-weight="500"><tspan x="0" y="0">DATE</tspan></text><text transform="translate(0 32.2)" fill="#fff" font-size="11" font-family="Komet-Medium, Komet" font-weight="500"><tspan x="0" y="0">00/00</tspan></text></g></g><path d="M16.187,28.342a2.5,2.5,0,0,0,2.485-2.5H13.7A2.5,2.5,0,0,0,16.187,28.342Zm8.077-7.49V13.987a8.091,8.091,0,0,0-6.213-7.864V5.249a1.864,1.864,0,1,0-3.728,0v.873A8.091,8.091,0,0,0,8.11,13.987v6.866l-2.485,2.5V24.6H26.75V23.349Z" transform="translate(259.812 40.007)" fill="#16161d"/><g transform="translate(21.117 85.206)"><rect width="266.298" height="68.784" rx="12" fill="#4b38ae"/><text transform="translate(47.295 26.563)" fill="#fff" font-size="17" font-family="Komet-Medium, Komet" font-weight="500"><tspan x="0" y="0">TITRE</tspan></text><text transform="translate(47.295 43.563)" fill="#fff" font-size="8" font-family="SegoeUI, Segoe UI"><tspan x="0" y="0">Lorem ipsum dolor sit </tspan><tspan x="0" y="11">amet, consetetur</tspan></text><g transform="translate(181.295 9.363)"><text transform="translate(0 15.2)" fill="#fff" font-size="15" font-family="Komet-Medium, Komet" font-weight="500"><tspan x="0" y="0">DATE</tspan></text><text transform="translate(0 33.2)" fill="#fff" font-size="11" font-family="Komet-Medium, Komet" font-weight="500"><tspan x="0" y="0">00/00</tspan></text></g></g><g transform="translate(-28.778 543.546)"><g transform="matrix(1, 0, 0, 1, -262.33, -728.78)" filter="url(#c)"><path d="M-33.459-.437H96.2c24.66,0,25.9,28.98,52.457,28.98s31.8-28.98,53.757-28.98H329.474V109.656H-33.459Z" transform="translate(295.79 752.26)" fill="#16161d"/></g><path d="M23.472,0A23.472,23.472,0,1,1,0,23.472,23.472,23.472,0,0,1,23.472,0Z" transform="translate(159.145)" fill="url(#e)"/><path d="M12.977,27.545V19.863h5.761v7.682H24.6V16.023H28.34L15.858,4.5,3.375,16.023H7.119V27.545Z" transform="translate(86.422 38.176)" fill="#fff"/><path d="M13.656,17.462a4.845,4.845,0,1,0-4.889-4.8,4.86,4.86,0,0,0,4.889,4.8Zm0,3.521c-3.83,0-11.406,1.84-11.406,5.6V30.9H25.3V26.584C25.3,22.823,17.485,20.983,13.656,20.983Z" transform="translate(247.368 34.816)" fill="#fff"/><path d="M25.954,17.632H17.632v8.322H15.072V17.632H6.75V15.072h8.322V6.75h2.561v8.322h8.322Z" transform="translate(166.052 6.906)" fill="#fff"/></g><g transform="translate(28.799 41.676)"><path d="M8.95.123Q10.145.066,11.3.037T13.309,0a16.373,16.373,0,0,1,3.35.306,8.01,8.01,0,0,1,2.441.889,4.21,4.21,0,0,1,1.494,1.421A3.563,3.563,0,0,1,21.1,4.5a3.065,3.065,0,0,1-.159.991,3.237,3.237,0,0,1-.446.864,3.71,3.71,0,0,1-.7.73,4.658,4.658,0,0,1-.939.574A4.136,4.136,0,0,1,20,8.132a3.75,3.75,0,0,1,.9.758,3.355,3.355,0,0,1,.591.992,3.258,3.258,0,0,1,.212,1.176,3.941,3.941,0,0,1-.574,2.112,4.672,4.672,0,0,1-1.7,1.577,9.361,9.361,0,0,1-2.81.987,19.821,19.821,0,0,1-3.89.341q-.759,0-1.756-.027T8.95,15.961Zm4.682,6.254h.278a4.257,4.257,0,0,0,.947-.095,2.19,2.19,0,0,0,.691-.273,1.232,1.232,0,0,0,.427-.44,1.189,1.189,0,0,0,.145-.586,1.088,1.088,0,0,0-.139-.546,1.187,1.187,0,0,0-.418-.418,2.291,2.291,0,0,0-.683-.267,4.049,4.049,0,0,0-.925-.095h-.323V6.377Zm0,6.053H14.2a5.377,5.377,0,0,0,1.093-.1,2.588,2.588,0,0,0,.8-.29,1.387,1.387,0,0,0,.485-.463,1.162,1.162,0,0,0,.171-.619.97.97,0,0,0-.156-.541,1.241,1.241,0,0,0-.469-.407,2.743,2.743,0,0,0-.764-.256A5.508,5.508,0,0,0,14.3,9.668h-.669v2.765Z" transform="translate(-8.628 0.001)" fill="url(#f)"/><path d="M411.31.132q1.047-.055,2.068-.085T415.4.01a15.922,15.922,0,0,1,3.69.385,8.459,8.459,0,0,1,2.7,1.11,4.966,4.966,0,0,1,1.667,1.767,4.844,4.844,0,0,1,.568,2.357,5.162,5.162,0,0,1-.145,1.243,4.477,4.477,0,0,1-.427,1.1,4.946,4.946,0,0,1-.7.959,5.633,5.633,0,0,1-.947.813q.691,1.36,1.366,2.927t1.31,3.306h-5.362q-.391-1.137-.869-2.313t-1.048-2.346q-.248.033-.491.05t-.5.039v4.571H411.31Zm4.905,7.536h.179a4.458,4.458,0,0,0,1.125-.127,2.5,2.5,0,0,0,.817-.361,1.516,1.516,0,0,0,.5-.578A1.753,1.753,0,0,0,419,5.823a1.6,1.6,0,0,0-.171-.739,1.551,1.551,0,0,0-.5-.562,2.439,2.439,0,0,0-.817-.356,4.645,4.645,0,0,0-1.125-.122h-.179V7.668Z" transform="translate(-396.541 -0.008)" fill="url(#g)"/><path d="M3.463,480.972H0V469.791H3.463Z" transform="translate(0 -452.92)" fill="url(#h)"/><path d="M802.178,258.652H796.62v-19.46h5.558Z" transform="translate(-768.015 -230.6)" fill="url(#i)"/><path d="M150.515,480.972h-4.226l-2.8-5.013q-.268-.464-.472-.909a8.7,8.7,0,0,1-.354-.893q.039.449.063.9t.024.9v5.013H139.6V469.792h4.226l2.8,5.013a10.073,10.073,0,0,1,.472.9,9.145,9.145,0,0,1,.354.9q-.039-.449-.063-.909t-.024-.893V469.79h3.148Z" transform="translate(-134.587 -452.92)" fill="url(#j)"/><path d="M488.5,474.95a8.912,8.912,0,0,1-1.872.683,9.445,9.445,0,0,1-2.275.256,7.279,7.279,0,0,1-2.51-.405,5.291,5.291,0,0,1-1.878-1.141,4.885,4.885,0,0,1-1.173-1.771,6.235,6.235,0,0,1-.406-2.293,6.546,6.546,0,0,1,.22-1.735,5.546,5.546,0,0,1,.629-1.467,5.372,5.372,0,0,1,.983-1.176,5.683,5.683,0,0,1,1.28-.866,6.822,6.822,0,0,1,1.527-.535,8.09,8.09,0,0,1,3.738.071,6.242,6.242,0,0,1,1.763.775l-.795,2.754a3.794,3.794,0,0,0-.633-.358,5,5,0,0,0-.712-.256,5.66,5.66,0,0,0-.751-.154,5.565,5.565,0,0,0-.736-.051,4.214,4.214,0,0,0-.807.075,3.107,3.107,0,0,0-.712.228,2.4,2.4,0,0,0-.6.393,2.336,2.336,0,0,0-.457.562,2.77,2.77,0,0,0-.291.731,3.768,3.768,0,0,0-.1.912,3.848,3.848,0,0,0,.161,1.153,2.421,2.421,0,0,0,.481.881,2.151,2.151,0,0,0,.787.567,2.723,2.723,0,0,0,1.082.2q.2,0,.382-.012a2.265,2.265,0,0,0,.35-.051v-1.134h-1.456v-2.676h4.78v5.839Z" transform="translate(-461.212 -447.636)" fill="url(#k)"/><path d="M818.386,20.018h-6.6V40.474h-8.547V20.018h-6.6V12.87h21.756Z" transform="translate(-768.025 -12.407)" fill="url(#l)"/></g></g><path d="M75.128,44.789H44.789V75.128h-7.7V44.789H6.75v-7.7H37.089V6.75h7.7V37.089H75.128Z" transform="translate(1065.354 305.566) rotate(-22)" fill="#66539b"/><path d="M75.128,44.789H44.789V75.128h-7.7V44.789H6.75v-7.7H37.089V6.75h7.7V37.089H75.128Z" transform="translate(1698.207 201.566) rotate(-22)" fill="#66539b"/><path d="M75.128,44.789H44.789V75.128h-7.7V44.789H6.75v-7.7H37.089V6.75h7.7V37.089H75.128Z" transform="translate(1551.754 706) rotate(-45)" fill="#66539b"/><path d="M75.128,44.789H44.789V75.128h-7.7V44.789H6.75v-7.7H37.089V6.75h7.7V37.089H75.128Z" transform="translate(987.725 871.351) rotate(-45)" fill="#66539b"/><path d="M45,8A37,37,0,1,0,82,45,37.042,37.042,0,0,0,45,8m0-8A45,45,0,1,1,0,45,45,45,0,0,1,45,0Z" transform="translate(1146 706)" fill="#66539b"/><path d="M45,8A37,37,0,1,0,82,45,37.042,37.042,0,0,0,45,8m0-8A45,45,0,1,1,0,45,45,45,0,0,1,45,0Z" transform="translate(1606 360)" fill="#66539b"/><path d="M45,8A37,37,0,1,0,82,45,37.042,37.042,0,0,0,45,8m0-8A45,45,0,1,1,0,45,45,45,0,0,1,45,0Z" transform="translate(1728 857)" fill="#66539b"/><path d="M45,8A37,37,0,1,0,82,45,37.042,37.042,0,0,0,45,8m0-8A45,45,0,1,1,0,45,45,45,0,0,1,45,0Z" transform="translate(1471 140)" fill="#66539b"/><path d="M47.5,15.96,13.879,74H81.121L47.5,15.96M47.5,0,95,82H0Z" transform="translate(1633 499)" fill="#66539b"/><path d="M47.5,15.96,13.879,74H81.121L47.5,15.96M47.5,0,95,82H0Z" transform="translate(1165.668 623.212) rotate(-139)" fill="#66539b"/><path d="M47.5,15.96,13.879,74H81.121L47.5,15.96M47.5,0,95,82H0Z" transform="matrix(0.966, 0.259, -0.259, 0.966, 1281.23, 185.104)" fill="#66539b"/><path d="M47.5,15.96,13.879,74H81.121L47.5,15.96M47.5,0,95,82H0Z" transform="matrix(0.755, -0.656, 0.656, 0.755, 968.479, 217.019)" fill="#66539b"/></g></svg>