<svg xmlns="http://www.w3.org/2000/svg" xmlns:xlink="http://www.w3.org/1999/xlink" width="73.508" height="41.23" viewBox="0 0 73.508 41.23"><defs><linearGradient id="a" x1="-0.187" y1="0.233" x2="3.282" y2="2.017" gradientUnits="objectBoundingBox"><stop offset="0" stop-color="#da2ee6"/><stop offset="0.52" stop-color="#822ace"/><stop offset="1" stop-color="#3922b5"/></linearGradient><linearGradient id="b" x1="-0.955" y1="-0.176" x2="2.406" y2="1.62" xlink:href="#a"/><linearGradient id="c" x1="-2.737" y1="-0.149" x2="10.052" y2="2.415" xlink:href="#a"/><linearGradient id="d" x1="-5.165" y1="-0.547" x2="2.802" y2="0.926" xlink:href="#a"/><linearGradient id="e" x1="-1.091" y1="-0.505" x2="2.966" y2="2.058" xlink:href="#a"/><linearGradient id="f" x1="-1.998" y1="-0.979" x2="2.367" y2="1.497" xlink:href="#a"/><linearGradient id="g" x1="-1.08" y1="-0.383" x2="0.956" y2="0.655" xlink:href="#a"/></defs><path d="M8.95.179Q10.691.1,12.375.049T15.312,0A23.9,23.9,0,0,1,20.2.448a11.691,11.691,0,0,1,3.563,1.3,6.144,6.144,0,0,1,2.18,2.074,5.2,5.2,0,0,1,.741,2.75,4.473,4.473,0,0,1-.228,1.44,4.724,4.724,0,0,1-.651,1.261,5.415,5.415,0,0,1-1.025,1.066,6.8,6.8,0,0,1-1.367.838,6.038,6.038,0,0,1,1.676.692,5.474,5.474,0,0,1,1.318,1.106,4.9,4.9,0,0,1,.863,1.448,4.755,4.755,0,0,1,.309,1.717,5.752,5.752,0,0,1-.838,3.083,6.819,6.819,0,0,1-2.482,2.3,13.663,13.663,0,0,1-4.1,1.44,28.931,28.931,0,0,1-5.679.5q-1.107,0-2.563-.04T8.95,23.3V.179Zm6.834,9.128h.407a6.213,6.213,0,0,0,1.383-.138,3.2,3.2,0,0,0,1.009-.4,1.8,1.8,0,0,0,.618-.643,1.735,1.735,0,0,0,.212-.854,1.588,1.588,0,0,0-.2-.8,1.732,1.732,0,0,0-.61-.61,3.343,3.343,0,0,0-.993-.39,5.909,5.909,0,0,0-1.351-.138h-.472v3.97Zm0,8.835h.83A7.847,7.847,0,0,0,18.208,18a3.777,3.777,0,0,0,1.164-.423,2.025,2.025,0,0,0,.708-.675,1.7,1.7,0,0,0,.244-.9,1.415,1.415,0,0,0-.228-.789,1.812,1.812,0,0,0-.683-.594,4,4,0,0,0-1.115-.374,8.039,8.039,0,0,0-1.538-.13h-.976v4.036Z" transform="translate(-8.481)" fill="url(#a)"/><path d="M411.31.189q1.529-.081,3.018-.13T417.282.01a23.239,23.239,0,0,1,5.386.561,12.348,12.348,0,0,1,3.946,1.619,7.248,7.248,0,0,1,2.433,2.579,7.071,7.071,0,0,1,.83,3.441,7.531,7.531,0,0,1-.212,1.814,6.533,6.533,0,0,1-.626,1.6,7.215,7.215,0,0,1-1.017,1.4,8.22,8.22,0,0,1-1.383,1.188q1.009,1.985,1.993,4.271t1.912,4.824h-7.826q-.57-1.66-1.269-3.376t-1.53-3.425q-.362.049-.716.073t-.732.057v6.671h-7.159V.189Zm7.159,11h.262A6.508,6.508,0,0,0,420.373,11a3.647,3.647,0,0,0,1.192-.527,2.21,2.21,0,0,0,.727-.843,2.556,2.556,0,0,0,.245-1.136,2.331,2.331,0,0,0-.245-1.079,2.263,2.263,0,0,0-.727-.819,3.561,3.561,0,0,0-1.192-.519,6.778,6.778,0,0,0-1.642-.178h-.262v5.288Z" transform="translate(-389.753 -0.009)" fill="url(#b)"/><path d="M5.054,486.111H0V469.79H5.054Z" transform="translate(0 -445.168)" fill="url(#c)"/><path d="M804.733,267.6H796.62V239.19h8.113Z" transform="translate(-754.869 -226.654)" fill="url(#d)"/><path d="M155.531,486.111h-6.168l-4.089-7.317q-.391-.678-.689-1.327a12.726,12.726,0,0,1-.517-1.3q.057.655.092,1.315t.035,1.315v7.317H139.6V469.79h6.168l4.089,7.317a14.722,14.722,0,0,1,.689,1.321,13.344,13.344,0,0,1,.517,1.309q-.057-.655-.092-1.327t-.035-1.3V469.79h4.594Z" transform="translate(-132.283 -445.168)" fill="url(#e)"/><path d="M493.15,479.839a13,13,0,0,1-2.734.994,13.779,13.779,0,0,1-3.32.373,10.623,10.623,0,0,1-3.664-.592,7.722,7.722,0,0,1-2.74-1.666,7.13,7.13,0,0,1-1.711-2.584,9.1,9.1,0,0,1-.592-3.348,9.557,9.557,0,0,1,.322-2.532,8.093,8.093,0,0,1,.919-2.142,7.848,7.848,0,0,1,1.436-1.717,8.3,8.3,0,0,1,1.872-1.264,9.952,9.952,0,0,1,2.228-.781,11.809,11.809,0,0,1,5.455.1,9.116,9.116,0,0,1,2.573,1.132l-1.16,4.02a5.552,5.552,0,0,0-.925-.523,7.281,7.281,0,0,0-1.039-.373,8.269,8.269,0,0,0-1.1-.224,8.08,8.08,0,0,0-1.074-.074,6.146,6.146,0,0,0-1.177.109,4.541,4.541,0,0,0-1.039.333,3.51,3.51,0,0,0-.873.574,3.411,3.411,0,0,0-.666.821,4.044,4.044,0,0,0-.425,1.068,5.5,5.5,0,0,0-.149,1.332,5.614,5.614,0,0,0,.235,1.683,3.533,3.533,0,0,0,.7,1.286,3.142,3.142,0,0,0,1.149.827,3.975,3.975,0,0,0,1.579.293q.3,0,.557-.017a3.294,3.294,0,0,0,.511-.074v-1.654h-2.125v-3.905h6.972v8.522Z" transform="translate(-453.317 -439.975)" fill="url(#f)"/><path d="M828.385,23.3h-9.64V53.16H806.27V23.3h-9.64V12.87h31.756V23.3Z" transform="translate(-754.878 -12.195)" fill="url(#g)"/></svg>